<svg xmlns="http://www.w3.org/2000/svg" viewBox="0 0 40 40" fill="none">
  <path opacity="0.15" fill-rule="evenodd" clip-rule="evenodd" d="M20 4C11.7157 4 5 6.68629 5 10V30C5 33.3137 11.7157 36 20 36C28.2843 36 35 33.3137 35 30V10C35 6.68629 28.2843 4 20 4Z" fill="url(#paint0_linear)"/>
  <path d="M20 7C12.268 7 6 9.23858 6 12V28C6 30.7614 12.268 33 20 33C27.732 33 34 30.7614 34 28V12C34 9.23858 27.732 7 20 7Z" stroke="url(#paint1_linear)" stroke-width="2"/>
  <path d="M15 12V28M20 12V28M25 12V28" stroke="url(#paint2_linear)" stroke-width="2"/>
  <path d="M12 20H28" stroke="url(#paint3_linear)" stroke-width="2"/>
  <circle cx="30" cy="20" r="2" fill="url(#paint4_linear)"/>
  <path d="M10 15L13 12M10 25L13 28" stroke="url(#paint5_linear)" stroke-width="2"/>
  <defs>
    <linearGradient id="paint0_linear" x1="8.33333" y1="4" x2="31.6667" y2="36" gradientUnits="userSpaceOnUse">
      <stop offset="0.259336" stop-color="#FFDB6E"/>
      <stop offset="1" stop-color="#FFBC5E"/>
    </linearGradient>
    <linearGradient id="paint1_linear" x1="9.33333" y1="7" x2="30.6667" y2="33" gradientUnits="userSpaceOnUse">
      <stop offset="0.259336" stop-color="#FFDB6E"/>
      <stop offset="1" stop-color="#FFBC5E"/>
    </linearGradient>
    <linearGradient id="paint2_linear" x1="15" y1="12" x2="25" y2="28" gradientUnits="userSpaceOnUse">
      <stop offset="0.259336" stop-color="#FFDB6E"/>
      <stop offset="1" stop-color="#FFBC5E"/>
    </linearGradient>
    <linearGradient id="paint3_linear" x1="12" y1="20" x2="28" y2="20" gradientUnits="userSpaceOnUse">
      <stop offset="0.259336" stop-color="#FFDB6E"/>
      <stop offset="1" stop-color="#FFBC5E"/>
    </linearGradient>
    <linearGradient id="paint4_linear" x1="28" y1="18" x2="32" y2="22" gradientUnits="userSpaceOnUse">
      <stop offset="0.259336" stop-color="#FFDB6E"/>
      <stop offset="1" stop-color="#FFBC5E"/>
    </linearGradient>
    <linearGradient id="paint5_linear" x1="10" y1="12" x2="13" y2="28" gradientUnits="userSpaceOnUse">
      <stop offset="0.259336" stop-color="#FFDB6E"/>
      <stop offset="1" stop-color="#FFBC5E"/>
    </linearGradient>
  </defs>
</svg>