<svg xmlns="http://www.w3.org/2000/svg" width="40" height="40" viewBox="0 0 40 40" fill="none">
  <path opacity="0.15" fill-rule="evenodd" clip-rule="evenodd" d="M5 8C5 6.89543 5.89543 6 7 6H33C34.1046 6 35 6.89543 35 8V32C35 33.1046 34.1046 34 33 34H7C5.89543 34 5 33.1046 5 32V8Z" fill="url(#paint0_linear)"/>
  <path d="M7 8H33V12H7V8Z" stroke="url(#paint1_linear)" stroke-width="2"/>
  <path d="M11 18H19" stroke="url(#paint2_linear)" stroke-width="2" stroke-linecap="round"/>
  <path d="M11 24H23" stroke="url(#paint3_linear)" stroke-width="2" stroke-linecap="round"/>
  <path d="M11 30H27" stroke="url(#paint4_linear)" stroke-width="2" stroke-linecap="round"/>
  <circle cx="9" cy="10" r="1" fill="url(#paint5_linear)"/>
  <circle cx="13" cy="10" r="1" fill="url(#paint6_linear)"/>
  <circle cx="17" cy="10" r="1" fill="url(#paint7_linear)"/>
  <defs>
    <linearGradient id="paint0_linear" x1="8.33333" y1="6" x2="31.6667" y2="34" gradientUnits="userSpaceOnUse">
      <stop offset="0.259336" stop-color="#FFDB6E"/>
      <stop offset="1" stop-color="#FFBC5E"/>
    </linearGradient>
    <linearGradient id="paint1_linear" x1="11" y1="8" x2="29" y2="12" gradientUnits="userSpaceOnUse">
      <stop offset="0.259336" stop-color="#FFDB6E"/>
      <stop offset="1" stop-color="#FFBC5E"/>
    </linearGradient>
    <linearGradient id="paint2_linear" x1="11" y1="18" x2="19" y2="18" gradientUnits="userSpaceOnUse">
      <stop offset="0.259336" stop-color="#FFDB6E"/>
      <stop offset="1" stop-color="#FFBC5E"/>
    </linearGradient>
    <linearGradient id="paint3_linear" x1="11" y1="24" x2="23" y2="24" gradientUnits="userSpaceOnUse">
      <stop offset="0.259336" stop-color="#FFDB6E"/>
      <stop offset="1" stop-color="#FFBC5E"/>
    </linearGradient>
    <linearGradient id="paint4_linear" x1="11" y1="30" x2="27" y2="30" gradientUnits="userSpaceOnUse">
      <stop offset="0.259336" stop-color="#FFDB6E"/>
      <stop offset="1" stop-color="#FFBC5E"/>
    </linearGradient>
    <linearGradient id="paint5_linear" x1="8" y1="9" x2="10" y2="11" gradientUnits="userSpaceOnUse">
      <stop offset="0.259336" stop-color="#FFDB6E"/>
      <stop offset="1" stop-color="#FFBC5E"/>
    </linearGradient>
    <linearGradient id="paint6_linear" x1="12" y1="9" x2="14" y2="11" gradientUnits="userSpaceOnUse">
      <stop offset="0.259336" stop-color="#FFDB6E"/>
      <stop offset="1" stop-color="#FFBC5E"/>
    </linearGradient>
    <linearGradient id="paint7_linear" x1="16" y1="9" x2="18" y2="11" gradientUnits="userSpaceOnUse">
      <stop offset="0.259336" stop-color="#FFDB6E"/>
      <stop offset="1" stop-color="#FFBC5E"/>
    </linearGradient>
  </defs>
</svg>